<svg width="16" height="16" viewBox="0 0 16 16" fill="none" xmlns="http://www.w3.org/2000/svg">
<path fill-rule="evenodd" clip-rule="evenodd" d="M11.5 8H4.5C4.23478 8 3.98043 8.10536 3.79289 8.29289C3.60536 8.48043 3.5 8.73478 3.5 9V14C3.5 14.2652 3.60536 14.5196 3.79289 14.7071C3.98043 14.8946 4.23478 15 4.5 15H11.5C11.7652 15 12.0196 14.8946 12.2071 14.7071C12.3946 14.5196 12.5 14.2652 12.5 14V9C12.5 8.73478 12.3946 8.48043 12.2071 8.29289C12.0196 8.10536 11.7652 8 11.5 8ZM4.5 7C3.96957 7 3.46086 7.21071 3.08579 7.58579C2.71071 7.96086 2.5 8.46957 2.5 9V14C2.5 14.5304 2.71071 15.0391 3.08579 15.4142C3.46086 15.7893 3.96957 16 4.5 16H11.5C12.0304 16 12.5391 15.7893 12.9142 15.4142C13.2893 15.0391 13.5 14.5304 13.5 14V9C13.5 8.46957 13.2893 7.96086 12.9142 7.58579C12.5391 7.21071 12.0304 7 11.5 7H4.5ZM4.5 4C4.5 3.07174 4.86875 2.1815 5.52513 1.52513C6.1815 0.868749 7.07174 0.5 8 0.5C8.92826 0.5 9.8185 0.868749 10.4749 1.52513C11.1313 2.1815 11.5 3.07174 11.5 4V7H10.5V4C10.5 3.33696 10.2366 2.70107 9.76777 2.23223C9.29893 1.76339 8.66304 1.5 8 1.5C7.33696 1.5 6.70107 1.76339 6.23223 2.23223C5.76339 2.70107 5.5 3.33696 5.5 4V7H4.5V4Z" fill="#28A6B2"/>
</svg>
