			<svg
				width="113"
				height="113"
				viewBox="0 0 113 113"
				fill="none"
				xmlns="http://www.w3.org/2000/svg"
			>
				<path
					fill-rule="evenodd"
					clip-rule="evenodd"
					d="M39.5714 28.0153H29.591V38.6961C29.591 44.9817 34.6865 50.0773 40.9722 50.0773H50.9526V39.3965C50.9526 33.1108 45.8571 28.0153 39.5714 28.0153ZM39.9159 33.2681H34.8438V38.8628C34.8438 42.1553 37.4334 44.8244 40.6277 44.8244H45.6998V39.2297C45.6998 35.9372 43.1102 33.2681 39.9159 33.2681Z"
					fill="#28A6B2"
				/>
				<path
					fill-rule="evenodd"
					clip-rule="evenodd"
					d="M74.2403 28.0153H84.2208V38.6961C84.2208 44.9817 79.1252 50.0773 72.8395 50.0773H62.8591V39.3965C62.8591 33.1108 67.9547 28.0153 74.2403 28.0153ZM73.8959 33.2681H78.9679V38.8628C78.9679 42.1553 76.3783 44.8244 73.184 44.8244H68.112V39.2297C68.112 35.9372 70.7015 33.2681 73.8959 33.2681Z"
					fill="#28A6B2"
				/>
				<path
					d="M49.9021 44.8244H63.9097V50.0773H49.9021V44.8244Z"
					fill="#28A6B2"
				/>
				<path
					fill-rule="evenodd"
					clip-rule="evenodd"
					d="M49.1927 7.05723L56.2499 0L63.8024 7.55248C68.2471 11.9971 68.2471 19.2033 63.8024 23.6479L56.7452 30.7052L49.1927 23.1527C44.7481 18.708 44.7481 11.5019 49.1927 7.05723ZM52.6635 11.0151L56.2499 7.42867L60.206 11.3847C62.5341 13.7129 62.5904 17.4313 60.3317 19.69L56.7452 23.2765L52.7891 19.3204C50.461 16.9923 50.4047 13.2739 52.6635 11.0151Z"
					fill="#28A6B2"
				/>
				<path
					fill-rule="evenodd"
					clip-rule="evenodd"
					d="M49.1927 89.3521L56.2499 82.2948L63.8024 89.8473C68.2471 94.292 68.2471 101.498 63.8024 105.943L56.7452 113L49.1927 105.448C44.7481 101.003 44.7481 93.7967 49.1927 89.3521ZM52.6635 93.31L56.2499 89.7235L60.206 93.6796C62.5341 96.0077 62.5904 99.7261 60.3317 101.985L56.7452 105.571L52.7891 101.615C50.461 99.2871 50.4047 95.5687 52.6635 93.31Z"
					fill="#28A6B2"
				/>
				<path
					fill-rule="evenodd"
					clip-rule="evenodd"
					d="M105.943 48.6699L113 55.7271L105.448 63.2796C101.003 67.7242 93.7967 67.7242 89.3521 63.2796L82.2948 56.2223L89.8473 48.6699C94.292 44.2252 101.498 44.2252 105.943 48.6699ZM101.985 52.1406L105.571 55.7271L101.615 59.6832C99.2872 62.0113 95.5688 62.0676 93.3101 59.8088L89.7236 56.2223L93.6797 52.2663C96.0078 49.9381 99.7262 49.8819 101.985 52.1406Z"
					fill="#28A6B2"
				/>
				<path
					fill-rule="evenodd"
					clip-rule="evenodd"
					d="M23.6479 48.6699L30.7052 55.7271L23.1527 63.2796C18.708 67.7242 11.5019 67.7242 7.05723 63.2796L0 56.2223L7.55248 48.6699C11.9971 44.2252 19.2033 44.2252 23.6479 48.6699ZM19.6901 52.1406L23.2766 55.7271L19.3205 59.6832C16.9924 62.0113 13.274 62.0676 11.0152 59.8088L7.42878 56.2223L11.3848 52.2663C13.713 49.9381 17.4314 49.8819 19.6901 52.1406Z"
					fill="#28A6B2"
				/>
				<path
					fill-rule="evenodd"
					clip-rule="evenodd"
					d="M74.2403 82.2948H84.2208V71.614C84.2208 65.3283 79.1252 60.2328 72.8395 60.2328H62.8591V70.9136C62.8591 77.1993 67.9547 82.2948 74.2403 82.2948ZM73.8959 77.042H78.9679V71.4473C78.9679 68.1548 76.3783 65.4857 73.184 65.4857H68.112V71.0804C68.112 74.3729 70.7015 77.042 73.8959 77.042Z"
					fill="#28A6B2"
				/>
				<path
					fill-rule="evenodd"
					clip-rule="evenodd"
					d="M39.5714 82.2948H29.591V71.614C29.591 65.3283 34.6865 60.2328 40.9722 60.2328L50.9526 60.2328V70.9136C50.9526 77.1993 45.8571 82.2948 39.5714 82.2948ZM39.9159 77.042H34.8438V71.4473C34.8438 68.1548 37.4334 65.4857 40.6277 65.4857H45.6998V71.0804C45.6998 74.3729 43.1102 77.042 39.9159 77.042Z"
					fill="#28A6B2"
				/>
				<path
					d="M63.9097 65.4857H49.9021V60.2328H63.9097V65.4857Z"
					fill="#28A6B2"
				/>
			</svg>