<svg width="25" height="24" viewBox="0 0 25 24" fill="none" xmlns="http://www.w3.org/2000/svg">
<path fill-rule="evenodd" clip-rule="evenodd" d="M5.75 15C5.55109 15 5.36032 14.921 5.21967 14.7803C5.07902 14.6397 5 14.4489 5 14.25V2.25C5 2.05109 5.07902 1.86032 5.21967 1.71967C5.36032 1.57902 5.55109 1.5 5.75 1.5H19.25C19.4489 1.5 19.6397 1.57902 19.7803 1.71967C19.921 1.86032 20 2.05109 20 2.25V14.25C20 14.4489 19.921 14.6397 19.7803 14.7803C19.6397 14.921 19.4489 15 19.25 15H16.25C16.0511 15 15.8603 15.079 15.7197 15.2197C15.579 15.3603 15.5 15.5511 15.5 15.75C15.5 15.9489 15.579 16.1397 15.7197 16.2803C15.8603 16.421 16.0511 16.5 16.25 16.5H19.25C19.8467 16.5 20.419 16.2629 20.841 15.841C21.2629 15.419 21.5 14.8467 21.5 14.25V2.25C21.5 1.65326 21.2629 1.08097 20.841 0.65901C20.419 0.237053 19.8467 0 19.25 0L5.75 0C5.15326 0 4.58097 0.237053 4.15901 0.65901C3.73705 1.08097 3.5 1.65326 3.5 2.25V14.25C3.5 14.8467 3.73705 15.419 4.15901 15.841C4.58097 16.2629 5.15326 16.5 5.75 16.5H8.75C8.94891 16.5 9.13968 16.421 9.28033 16.2803C9.42098 16.1397 9.5 15.9489 9.5 15.75C9.5 15.5511 9.42098 15.3603 9.28033 15.2197C9.13968 15.079 8.94891 15 8.75 15H5.75Z" fill="#28A6B2"/>
<path fill-rule="evenodd" clip-rule="evenodd" d="M11.969 6.21888C12.0386 6.14903 12.1214 6.09362 12.2125 6.05581C12.3036 6.018 12.4013 5.99854 12.5 5.99854C12.5986 5.99854 12.6963 6.018 12.7874 6.05581C12.8785 6.09362 12.9613 6.14903 13.031 6.21888L17.531 10.7189C17.6718 10.8597 17.7509 11.0507 17.7509 11.2499C17.7509 11.449 17.6718 11.64 17.531 11.7809C17.3901 11.9217 17.1991 12.0008 17 12.0008C16.8008 12.0008 16.6098 11.9217 16.469 11.7809L13.25 8.56038V21.7499C13.25 21.9488 13.171 22.1396 13.0303 22.2802C12.8896 22.4209 12.6989 22.4999 12.5 22.4999C12.3011 22.4999 12.1103 22.4209 11.9696 22.2802C11.829 22.1396 11.75 21.9488 11.75 21.7499V8.56038L8.53097 11.7809C8.39014 11.9217 8.19913 12.0008 7.99997 12.0008C7.80081 12.0008 7.6098 11.9217 7.46897 11.7809C7.32814 11.64 7.24902 11.449 7.24902 11.2499C7.24902 11.0507 7.32814 10.8597 7.46897 10.7189L11.969 6.21888Z" fill="#28A6B2"/>
</svg>
