<svg
					width="623"
					height="210"
					viewBox="0 0 623 210"
					fill="none"
					xmlns="http://www.w3.org/2000/svg"
				>
					<rect x="0.5" y="0.5" width="622" height="209" fill="#F8F9FA" />
					<rect x="0.5" y="0.5" width="622" height="209" stroke="#E9ECEF" />
					<path
						d="M291.732 87.7678C292.201 88.2366 292.837 88.5 293.5 88.5H301.5C301.898 88.5 302.279 88.658 302.561 88.9393C302.842 89.2206 303 89.6022 303 90C303 90.3978 302.842 90.7794 302.561 91.0607C302.279 91.342 301.898 91.5 301.5 91.5H293.5C292.041 91.5 290.642 90.9205 289.611 89.8891C288.579 88.8576 288 87.4587 288 86V54C288 52.5413 288.579 51.1424 289.611 50.1109C290.642 49.0795 292.041 48.5 293.5 48.5H329.5C330.959 48.5 332.358 49.0795 333.389 50.1109C334.421 51.1424 335 52.5413 335 54V86C335 87.4587 334.421 88.8576 333.389 89.8891C332.358 90.9205 330.959 91.5 329.5 91.5H321.5C321.102 91.5 320.721 91.342 320.439 91.0607C320.158 90.7794 320 90.3978 320 90C320 89.6022 320.158 89.2206 320.439 88.9393C320.721 88.658 321.102 88.5 321.5 88.5H329.5C330.163 88.5 330.799 88.2366 331.268 87.7678C331.737 87.2989 332 86.663 332 86V54C332 53.337 331.737 52.7011 331.268 52.2322C330.799 51.7634 330.163 51.5 329.5 51.5H293.5C292.837 51.5 292.201 51.7634 291.732 52.2322C291.263 52.7011 291 53.337 291 54V86C291 86.663 291.263 87.2989 291.732 87.7678Z"
						fill="#28A6B2"
						stroke="#F8F9FA"
					/>
					<path
						d="M310.438 64.9372L310.439 64.9368C310.578 64.7971 310.743 64.6863 310.926 64.6106C311.108 64.535 311.303 64.4961 311.501 64.4961C311.698 64.4961 311.893 64.535 312.075 64.6106C312.258 64.6863 312.423 64.7971 312.563 64.9368L312.563 64.9372L324.563 76.9372C324.845 77.219 325.003 77.6012 325.003 77.9997C325.003 78.3982 324.845 78.7803 324.563 79.0621C324.281 79.3439 323.899 79.5022 323.501 79.5022C323.102 79.5022 322.72 79.3439 322.438 79.0621L313.854 70.4742L313.001 69.6202V70.8277V106C313.001 106.397 312.843 106.779 312.561 107.06C312.28 107.342 311.898 107.5 311.501 107.5C311.103 107.5 310.721 107.342 310.44 107.06C310.159 106.779 310.001 106.397 310.001 106V70.8277V69.6202L309.147 70.4742L300.563 79.0621C300.281 79.3439 299.899 79.5022 299.501 79.5022C299.102 79.5022 298.72 79.3439 298.438 79.0621C298.156 78.7803 297.998 78.3982 297.998 77.9997C297.998 77.6012 298.156 77.219 298.438 76.9372L310.438 64.9372Z"
						fill="#28A6B2"
						stroke="#F8F9FA"
					/>
					<path
						d="M138 155H134.409V143.364H138.159C139.288 143.364 140.254 143.597 141.057 144.062C141.86 144.525 142.475 145.189 142.903 146.057C143.331 146.92 143.545 147.955 143.545 149.159C143.545 150.371 143.33 151.415 142.898 152.29C142.466 153.161 141.837 153.831 141.011 154.301C140.186 154.767 139.182 155 138 155ZM135.818 153.75H137.909C138.871 153.75 139.669 153.564 140.301 153.193C140.934 152.822 141.405 152.294 141.716 151.608C142.027 150.922 142.182 150.106 142.182 149.159C142.182 148.22 142.028 147.411 141.722 146.733C141.415 146.051 140.956 145.528 140.347 145.165C139.737 144.797 138.977 144.614 138.068 144.614H135.818V153.75ZM145.727 155V146.273H147.023V147.591H147.114C147.273 147.159 147.561 146.809 147.977 146.54C148.394 146.271 148.864 146.136 149.386 146.136C149.485 146.136 149.608 146.138 149.756 146.142C149.903 146.146 150.015 146.152 150.091 146.159V147.523C150.045 147.511 149.941 147.494 149.778 147.472C149.619 147.445 149.451 147.432 149.273 147.432C148.848 147.432 148.47 147.521 148.136 147.699C147.807 147.873 147.545 148.116 147.352 148.426C147.163 148.733 147.068 149.083 147.068 149.477V155H145.727ZM154.249 155.205C153.696 155.205 153.194 155.1 152.743 154.892C152.292 154.68 151.934 154.375 151.669 153.977C151.404 153.576 151.271 153.091 151.271 152.523C151.271 152.023 151.37 151.617 151.567 151.307C151.764 150.992 152.027 150.746 152.357 150.568C152.686 150.39 153.05 150.258 153.447 150.17C153.849 150.08 154.252 150.008 154.658 149.955C155.188 149.886 155.618 149.835 155.947 149.801C156.281 149.763 156.523 149.701 156.675 149.614C156.83 149.527 156.908 149.375 156.908 149.159V149.114C156.908 148.553 156.754 148.117 156.447 147.807C156.144 147.496 155.684 147.341 155.067 147.341C154.427 147.341 153.925 147.481 153.561 147.761C153.197 148.042 152.942 148.341 152.794 148.659L151.521 148.205C151.749 147.674 152.052 147.261 152.43 146.966C152.813 146.667 153.23 146.458 153.68 146.341C154.135 146.22 154.582 146.159 155.021 146.159C155.302 146.159 155.624 146.193 155.987 146.261C156.355 146.326 156.709 146.46 157.05 146.665C157.394 146.869 157.68 147.178 157.908 147.591C158.135 148.004 158.249 148.557 158.249 149.25V155H156.908V153.818H156.839C156.749 154.008 156.597 154.21 156.385 154.426C156.173 154.642 155.891 154.826 155.538 154.977C155.186 155.129 154.756 155.205 154.249 155.205ZM154.453 154C154.983 154 155.43 153.896 155.794 153.688C156.161 153.479 156.438 153.21 156.624 152.881C156.813 152.551 156.908 152.205 156.908 151.841V150.614C156.851 150.682 156.726 150.744 156.533 150.801C156.343 150.854 156.124 150.902 155.874 150.943C155.627 150.981 155.387 151.015 155.152 151.045C154.921 151.072 154.733 151.095 154.589 151.114C154.241 151.159 153.915 151.233 153.612 151.335C153.313 151.434 153.071 151.583 152.885 151.784C152.703 151.981 152.612 152.25 152.612 152.591C152.612 153.057 152.785 153.409 153.129 153.648C153.478 153.883 153.919 154 154.453 154ZM164.219 158.455C163.571 158.455 163.014 158.371 162.548 158.205C162.082 158.042 161.694 157.826 161.384 157.557C161.077 157.292 160.832 157.008 160.651 156.705L161.719 155.955C161.84 156.114 161.993 156.295 162.179 156.5C162.365 156.708 162.618 156.888 162.94 157.04C163.266 157.195 163.692 157.273 164.219 157.273C164.923 157.273 165.505 157.102 165.963 156.761C166.421 156.42 166.651 155.886 166.651 155.159V153.386H166.537C166.438 153.545 166.298 153.742 166.116 153.977C165.938 154.208 165.681 154.415 165.344 154.597C165.01 154.775 164.56 154.864 163.991 154.864C163.287 154.864 162.654 154.697 162.094 154.364C161.537 154.03 161.096 153.545 160.77 152.909C160.448 152.273 160.287 151.5 160.287 150.591C160.287 149.697 160.444 148.919 160.759 148.256C161.073 147.589 161.51 147.074 162.071 146.71C162.632 146.343 163.279 146.159 164.014 146.159C164.582 146.159 165.033 146.254 165.366 146.443C165.704 146.629 165.961 146.841 166.139 147.08C166.321 147.314 166.461 147.508 166.56 147.659H166.696V146.273H167.991V155.25C167.991 156 167.821 156.61 167.48 157.08C167.143 157.553 166.688 157.9 166.116 158.119C165.548 158.343 164.916 158.455 164.219 158.455ZM164.173 153.659C164.711 153.659 165.166 153.536 165.537 153.29C165.908 153.044 166.19 152.689 166.384 152.227C166.577 151.765 166.673 151.212 166.673 150.568C166.673 149.939 166.579 149.384 166.389 148.903C166.2 148.422 165.92 148.045 165.548 147.773C165.177 147.5 164.719 147.364 164.173 147.364C163.605 147.364 163.132 147.508 162.753 147.795C162.378 148.083 162.096 148.47 161.906 148.955C161.721 149.439 161.628 149.977 161.628 150.568C161.628 151.174 161.723 151.71 161.912 152.176C162.105 152.638 162.389 153.002 162.764 153.267C163.143 153.528 163.613 153.659 164.173 153.659ZM178.241 155.159C177.476 155.159 176.817 155.019 176.264 154.739C175.711 154.458 175.285 154.074 174.986 153.585C174.687 153.097 174.537 152.538 174.537 151.909C174.537 151.424 174.639 150.994 174.844 150.619C175.052 150.241 175.338 149.89 175.702 149.568C176.069 149.242 176.491 148.917 176.969 148.591L178.651 147.341C178.98 147.125 179.243 146.894 179.44 146.648C179.641 146.402 179.741 146.08 179.741 145.682C179.741 145.386 179.611 145.1 179.349 144.824C179.092 144.547 178.753 144.409 178.332 144.409C178.037 144.409 177.776 144.485 177.548 144.636C177.325 144.784 177.149 144.973 177.02 145.205C176.895 145.432 176.832 145.667 176.832 145.909C176.832 146.182 176.906 146.458 177.054 146.739C177.205 147.015 177.397 147.299 177.628 147.591C177.863 147.879 178.105 148.174 178.355 148.477L183.696 155H182.082L177.673 149.682C177.264 149.189 176.893 148.742 176.56 148.341C176.226 147.939 175.961 147.544 175.764 147.153C175.567 146.763 175.469 146.341 175.469 145.886C175.469 145.364 175.584 144.905 175.815 144.511C176.05 144.114 176.378 143.805 176.798 143.585C177.223 143.362 177.719 143.25 178.287 143.25C178.87 143.25 179.372 143.364 179.793 143.591C180.213 143.814 180.537 144.112 180.764 144.483C180.991 144.85 181.105 145.25 181.105 145.682C181.105 146.239 180.967 146.722 180.69 147.131C180.414 147.54 180.037 147.92 179.56 148.273L177.241 150C176.719 150.386 176.365 150.761 176.179 151.125C175.993 151.489 175.901 151.75 175.901 151.909C175.901 152.273 175.995 152.612 176.185 152.926C176.374 153.241 176.641 153.494 176.986 153.688C177.33 153.881 177.734 153.977 178.196 153.977C178.635 153.977 179.063 153.884 179.48 153.699C179.897 153.509 180.274 153.237 180.611 152.881C180.952 152.525 181.221 152.097 181.418 151.597C181.618 151.097 181.719 150.534 181.719 149.909H183.014C183.014 150.682 182.925 151.312 182.747 151.801C182.569 152.29 182.368 152.672 182.145 152.949C181.921 153.225 181.741 153.432 181.605 153.568C181.56 153.625 181.518 153.682 181.48 153.739C181.442 153.795 181.401 153.852 181.355 153.909C180.98 154.33 180.507 154.644 179.935 154.852C179.363 155.057 178.798 155.159 178.241 155.159ZM192.976 155.182C192.249 155.182 191.607 154.998 191.05 154.631C190.493 154.259 190.057 153.737 189.743 153.062C189.429 152.384 189.271 151.583 189.271 150.659C189.271 149.742 189.429 148.947 189.743 148.273C190.057 147.598 190.495 147.078 191.055 146.71C191.616 146.343 192.264 146.159 192.999 146.159C193.567 146.159 194.016 146.254 194.345 146.443C194.679 146.629 194.932 146.841 195.107 147.08C195.285 147.314 195.423 147.508 195.521 147.659H195.635V143.364H196.976V155H195.68V153.659H195.521C195.423 153.818 195.283 154.019 195.101 154.261C194.919 154.5 194.66 154.714 194.322 154.903C193.985 155.089 193.536 155.182 192.976 155.182ZM193.158 153.977C193.696 153.977 194.15 153.837 194.521 153.557C194.893 153.273 195.175 152.881 195.368 152.381C195.561 151.877 195.658 151.295 195.658 150.636C195.658 149.985 195.563 149.415 195.374 148.926C195.184 148.434 194.904 148.051 194.533 147.778C194.161 147.502 193.703 147.364 193.158 147.364C192.589 147.364 192.116 147.509 191.737 147.801C191.362 148.089 191.08 148.481 190.891 148.977C190.705 149.47 190.612 150.023 190.612 150.636C190.612 151.258 190.707 151.822 190.896 152.33C191.089 152.833 191.374 153.235 191.749 153.534C192.127 153.83 192.597 153.977 193.158 153.977ZM199.618 155V146.273H200.913V147.591H201.004C201.163 147.159 201.451 146.809 201.868 146.54C202.285 146.271 202.754 146.136 203.277 146.136C203.375 146.136 203.499 146.138 203.646 146.142C203.794 146.146 203.906 146.152 203.982 146.159V147.523C203.936 147.511 203.832 147.494 203.669 147.472C203.51 147.445 203.341 147.432 203.163 147.432C202.739 147.432 202.36 147.521 202.027 147.699C201.697 147.873 201.436 148.116 201.243 148.426C201.054 148.733 200.959 149.083 200.959 149.477V155H199.618ZM208.851 155.182C208.063 155.182 207.372 154.994 206.777 154.619C206.186 154.244 205.724 153.72 205.391 153.045C205.061 152.371 204.896 151.583 204.896 150.682C204.896 149.773 205.061 148.979 205.391 148.301C205.724 147.623 206.186 147.097 206.777 146.722C207.372 146.347 208.063 146.159 208.851 146.159C209.639 146.159 210.328 146.347 210.919 146.722C211.514 147.097 211.976 147.623 212.305 148.301C212.639 148.979 212.805 149.773 212.805 150.682C212.805 151.583 212.639 152.371 212.305 153.045C211.976 153.72 211.514 154.244 210.919 154.619C210.328 154.994 209.639 155.182 208.851 155.182ZM208.851 153.977C209.449 153.977 209.942 153.824 210.328 153.517C210.714 153.21 211 152.807 211.186 152.307C211.372 151.807 211.464 151.265 211.464 150.682C211.464 150.098 211.372 149.555 211.186 149.051C211 148.547 210.714 148.14 210.328 147.83C209.942 147.519 209.449 147.364 208.851 147.364C208.252 147.364 207.76 147.519 207.374 147.83C206.987 148.14 206.701 148.547 206.516 149.051C206.33 149.555 206.237 150.098 206.237 150.682C206.237 151.265 206.33 151.807 206.516 152.307C206.701 152.807 206.987 153.21 207.374 153.517C207.76 153.824 208.252 153.977 208.851 153.977ZM214.852 158.273V146.273H216.148V147.659H216.307C216.405 147.508 216.542 147.314 216.716 147.08C216.894 146.841 217.148 146.629 217.477 146.443C217.811 146.254 218.261 146.159 218.83 146.159C219.564 146.159 220.212 146.343 220.773 146.71C221.333 147.078 221.771 147.598 222.085 148.273C222.4 148.947 222.557 149.742 222.557 150.659C222.557 151.583 222.4 152.384 222.085 153.062C221.771 153.737 221.335 154.259 220.778 154.631C220.222 154.998 219.58 155.182 218.852 155.182C218.292 155.182 217.843 155.089 217.506 154.903C217.169 154.714 216.909 154.5 216.727 154.261C216.545 154.019 216.405 153.818 216.307 153.659H216.193V158.273H214.852ZM216.17 150.636C216.17 151.295 216.267 151.877 216.46 152.381C216.653 152.881 216.936 153.273 217.307 153.557C217.678 153.837 218.133 153.977 218.67 153.977C219.231 153.977 219.699 153.83 220.074 153.534C220.453 153.235 220.737 152.833 220.926 152.33C221.119 151.822 221.216 151.258 221.216 150.636C221.216 150.023 221.121 149.47 220.932 148.977C220.746 148.481 220.464 148.089 220.085 147.801C219.71 147.509 219.239 147.364 218.67 147.364C218.125 147.364 217.667 147.502 217.295 147.778C216.924 148.051 216.644 148.434 216.455 148.926C216.265 149.415 216.17 149.985 216.17 150.636ZM229.966 158.273C229.739 158.273 229.536 158.254 229.358 158.216C229.18 158.182 229.057 158.148 228.989 158.114L229.33 156.932C229.655 157.015 229.943 157.045 230.193 157.023C230.443 157 230.665 156.888 230.858 156.688C231.055 156.491 231.235 156.17 231.398 155.727L231.648 155.045L228.42 146.273H229.875L232.284 153.227H232.375L234.784 146.273H236.239L232.534 156.273C232.367 156.723 232.161 157.097 231.915 157.392C231.669 157.691 231.383 157.913 231.057 158.057C230.735 158.201 230.371 158.273 229.966 158.273ZM241.241 155.182C240.454 155.182 239.762 154.994 239.168 154.619C238.577 154.244 238.115 153.72 237.781 153.045C237.452 152.371 237.287 151.583 237.287 150.682C237.287 149.773 237.452 148.979 237.781 148.301C238.115 147.623 238.577 147.097 239.168 146.722C239.762 146.347 240.454 146.159 241.241 146.159C242.029 146.159 242.719 146.347 243.31 146.722C243.904 147.097 244.366 147.623 244.696 148.301C245.029 148.979 245.196 149.773 245.196 150.682C245.196 151.583 245.029 152.371 244.696 153.045C244.366 153.72 243.904 154.244 243.31 154.619C242.719 154.994 242.029 155.182 241.241 155.182ZM241.241 153.977C241.84 153.977 242.332 153.824 242.719 153.517C243.105 153.21 243.391 152.807 243.577 152.307C243.762 151.807 243.855 151.265 243.855 150.682C243.855 150.098 243.762 149.555 243.577 149.051C243.391 148.547 243.105 148.14 242.719 147.83C242.332 147.519 241.84 147.364 241.241 147.364C240.643 147.364 240.151 147.519 239.764 147.83C239.378 148.14 239.092 148.547 238.906 149.051C238.721 149.555 238.628 150.098 238.628 150.682C238.628 151.265 238.721 151.807 238.906 152.307C239.092 152.807 239.378 153.21 239.764 153.517C240.151 153.824 240.643 153.977 241.241 153.977ZM252.743 151.432V146.273H254.084V155H252.743V153.523H252.652C252.447 153.966 252.129 154.343 251.697 154.653C251.266 154.96 250.72 155.114 250.061 155.114C249.516 155.114 249.031 154.994 248.607 154.756C248.182 154.513 247.849 154.15 247.607 153.665C247.364 153.176 247.243 152.561 247.243 151.818V146.273H248.584V151.727C248.584 152.364 248.762 152.871 249.118 153.25C249.478 153.629 249.936 153.818 250.493 153.818C250.826 153.818 251.165 153.733 251.51 153.562C251.858 153.392 252.15 153.131 252.385 152.778C252.624 152.426 252.743 151.977 252.743 151.432ZM256.54 155V146.273H257.835V147.591H257.926C258.085 147.159 258.373 146.809 258.79 146.54C259.206 146.271 259.676 146.136 260.199 146.136C260.297 146.136 260.42 146.138 260.568 146.142C260.716 146.146 260.828 146.152 260.903 146.159V147.523C260.858 147.511 260.754 147.494 260.591 147.472C260.432 147.445 260.263 147.432 260.085 147.432C259.661 147.432 259.282 147.521 258.949 147.699C258.619 147.873 258.358 148.116 258.165 148.426C257.975 148.733 257.881 149.083 257.881 149.477V155H256.54ZM270.879 146.273V147.409H266.175V146.273H270.879ZM267.584 155V145.068C267.584 144.568 267.701 144.152 267.936 143.818C268.171 143.485 268.476 143.235 268.851 143.068C269.226 142.902 269.622 142.818 270.038 142.818C270.368 142.818 270.637 142.845 270.845 142.898C271.054 142.951 271.209 143 271.311 143.045L270.925 144.205C270.857 144.182 270.762 144.153 270.641 144.119C270.523 144.085 270.368 144.068 270.175 144.068C269.732 144.068 269.411 144.18 269.214 144.403C269.021 144.627 268.925 144.955 268.925 145.386V155H267.584ZM272.759 155V146.273H274.099V155H272.759ZM273.44 144.818C273.179 144.818 272.954 144.729 272.764 144.551C272.579 144.373 272.486 144.159 272.486 143.909C272.486 143.659 272.579 143.445 272.764 143.267C272.954 143.089 273.179 143 273.44 143C273.702 143 273.925 143.089 274.111 143.267C274.3 143.445 274.395 143.659 274.395 143.909C274.395 144.159 274.3 144.373 274.111 144.551C273.925 144.729 273.702 144.818 273.44 144.818ZM277.896 143.364V155H276.555V143.364H277.896ZM284.011 155.182C283.17 155.182 282.445 154.996 281.835 154.625C281.229 154.25 280.761 153.727 280.432 153.057C280.106 152.383 279.943 151.598 279.943 150.705C279.943 149.811 280.106 149.023 280.432 148.341C280.761 147.655 281.22 147.121 281.807 146.739C282.398 146.352 283.087 146.159 283.875 146.159C284.33 146.159 284.778 146.235 285.222 146.386C285.665 146.538 286.068 146.784 286.432 147.125C286.795 147.462 287.085 147.909 287.301 148.466C287.517 149.023 287.625 149.708 287.625 150.523V151.091H280.898V149.932H286.261C286.261 149.439 286.163 149 285.966 148.614C285.773 148.227 285.496 147.922 285.136 147.699C284.78 147.475 284.36 147.364 283.875 147.364C283.341 147.364 282.879 147.496 282.489 147.761C282.102 148.023 281.805 148.364 281.597 148.784C281.388 149.205 281.284 149.655 281.284 150.136V150.909C281.284 151.568 281.398 152.127 281.625 152.585C281.856 153.04 282.176 153.386 282.585 153.625C282.994 153.86 283.47 153.977 284.011 153.977C284.364 153.977 284.682 153.928 284.966 153.83C285.254 153.727 285.502 153.576 285.71 153.375C285.919 153.17 286.08 152.917 286.193 152.614L287.489 152.977C287.352 153.417 287.123 153.803 286.801 154.136C286.479 154.466 286.081 154.723 285.608 154.909C285.134 155.091 284.602 155.182 284.011 155.182ZM295.506 149.75V155H294.165V143.364H295.506V147.636H295.619C295.824 147.186 296.131 146.828 296.54 146.562C296.953 146.294 297.502 146.159 298.188 146.159C298.782 146.159 299.303 146.278 299.75 146.517C300.197 146.752 300.544 147.114 300.79 147.602C301.04 148.087 301.165 148.705 301.165 149.455V155H299.824V149.545C299.824 148.852 299.644 148.316 299.284 147.938C298.928 147.555 298.434 147.364 297.801 147.364C297.362 147.364 296.968 147.456 296.619 147.642C296.275 147.828 296.002 148.098 295.801 148.455C295.604 148.811 295.506 149.242 295.506 149.75ZM307.277 155.182C306.436 155.182 305.711 154.996 305.101 154.625C304.495 154.25 304.027 153.727 303.697 153.057C303.372 152.383 303.209 151.598 303.209 150.705C303.209 149.811 303.372 149.023 303.697 148.341C304.027 147.655 304.485 147.121 305.072 146.739C305.663 146.352 306.353 146.159 307.141 146.159C307.595 146.159 308.044 146.235 308.487 146.386C308.93 146.538 309.334 146.784 309.697 147.125C310.061 147.462 310.351 147.909 310.567 148.466C310.783 149.023 310.891 149.708 310.891 150.523V151.091H304.163V149.932H309.527C309.527 149.439 309.429 149 309.232 148.614C309.038 148.227 308.762 147.922 308.402 147.699C308.046 147.475 307.625 147.364 307.141 147.364C306.607 147.364 306.144 147.496 305.754 147.761C305.368 148.023 305.071 148.364 304.862 148.784C304.654 149.205 304.55 149.655 304.55 150.136V150.909C304.55 151.568 304.663 152.127 304.891 152.585C305.122 153.04 305.442 153.386 305.851 153.625C306.26 153.86 306.735 153.977 307.277 153.977C307.629 153.977 307.947 153.928 308.232 153.83C308.519 153.727 308.768 153.576 308.976 153.375C309.184 153.17 309.345 152.917 309.459 152.614L310.754 152.977C310.618 153.417 310.389 153.803 310.067 154.136C309.745 154.466 309.347 154.723 308.874 154.909C308.4 155.091 307.868 155.182 307.277 155.182ZM312.93 155V146.273H314.226V147.591H314.317C314.476 147.159 314.764 146.809 315.18 146.54C315.597 146.271 316.067 146.136 316.589 146.136C316.688 146.136 316.811 146.138 316.959 146.142C317.107 146.146 317.218 146.152 317.294 146.159V147.523C317.249 147.511 317.144 147.494 316.982 147.472C316.822 147.445 316.654 147.432 316.476 147.432C316.052 147.432 315.673 147.521 315.339 147.699C315.01 147.873 314.749 148.116 314.555 148.426C314.366 148.733 314.271 149.083 314.271 149.477V155H312.93ZM322.277 155.182C321.436 155.182 320.711 154.996 320.101 154.625C319.495 154.25 319.027 153.727 318.697 153.057C318.372 152.383 318.209 151.598 318.209 150.705C318.209 149.811 318.372 149.023 318.697 148.341C319.027 147.655 319.485 147.121 320.072 146.739C320.663 146.352 321.353 146.159 322.141 146.159C322.595 146.159 323.044 146.235 323.487 146.386C323.93 146.538 324.334 146.784 324.697 147.125C325.061 147.462 325.351 147.909 325.567 148.466C325.783 149.023 325.891 149.708 325.891 150.523V151.091H319.163V149.932H324.527C324.527 149.439 324.429 149 324.232 148.614C324.038 148.227 323.762 147.922 323.402 147.699C323.046 147.475 322.625 147.364 322.141 147.364C321.607 147.364 321.144 147.496 320.754 147.761C320.368 148.023 320.071 148.364 319.862 148.784C319.654 149.205 319.55 149.655 319.55 150.136V150.909C319.55 151.568 319.663 152.127 319.891 152.585C320.122 153.04 320.442 153.386 320.851 153.625C321.26 153.86 321.735 153.977 322.277 153.977C322.629 153.977 322.947 153.928 323.232 153.83C323.519 153.727 323.768 153.576 323.976 153.375C324.184 153.17 324.345 152.917 324.459 152.614L325.754 152.977C325.618 153.417 325.389 153.803 325.067 154.136C324.745 154.466 324.347 154.723 323.874 154.909C323.4 155.091 322.868 155.182 322.277 155.182ZM335.976 155.182C335.188 155.182 334.497 154.994 333.902 154.619C333.311 154.244 332.849 153.72 332.516 153.045C332.186 152.371 332.021 151.583 332.021 150.682C332.021 149.773 332.186 148.979 332.516 148.301C332.849 147.623 333.311 147.097 333.902 146.722C334.497 146.347 335.188 146.159 335.976 146.159C336.764 146.159 337.453 146.347 338.044 146.722C338.639 147.097 339.101 147.623 339.43 148.301C339.764 148.979 339.93 149.773 339.93 150.682C339.93 151.583 339.764 152.371 339.43 153.045C339.101 153.72 338.639 154.244 338.044 154.619C337.453 154.994 336.764 155.182 335.976 155.182ZM335.976 153.977C336.574 153.977 337.067 153.824 337.453 153.517C337.839 153.21 338.125 152.807 338.311 152.307C338.497 151.807 338.589 151.265 338.589 150.682C338.589 150.098 338.497 149.555 338.311 149.051C338.125 148.547 337.839 148.14 337.453 147.83C337.067 147.519 336.574 147.364 335.976 147.364C335.377 147.364 334.885 147.519 334.499 147.83C334.112 148.14 333.826 148.547 333.641 149.051C333.455 149.555 333.362 150.098 333.362 150.682C333.362 151.265 333.455 151.807 333.641 152.307C333.826 152.807 334.112 153.21 334.499 153.517C334.885 153.824 335.377 153.977 335.976 153.977ZM341.977 155V146.273H343.273V147.591H343.364C343.523 147.159 343.811 146.809 344.227 146.54C344.644 146.271 345.114 146.136 345.636 146.136C345.735 146.136 345.858 146.138 346.006 146.142C346.153 146.146 346.265 146.152 346.341 146.159V147.523C346.295 147.511 346.191 147.494 346.028 147.472C345.869 147.445 345.701 147.432 345.523 147.432C345.098 147.432 344.72 147.521 344.386 147.699C344.057 147.873 343.795 148.116 343.602 148.426C343.413 148.733 343.318 149.083 343.318 149.477V155H341.977ZM352.612 155V143.364H356.68C357.491 143.364 358.16 143.504 358.686 143.784C359.213 144.061 359.605 144.434 359.862 144.903C360.12 145.369 360.249 145.886 360.249 146.455C360.249 146.955 360.16 147.367 359.982 147.693C359.807 148.019 359.576 148.277 359.288 148.466C359.004 148.655 358.696 148.795 358.362 148.886V149C358.718 149.023 359.076 149.148 359.436 149.375C359.796 149.602 360.097 149.928 360.339 150.352C360.582 150.777 360.703 151.295 360.703 151.909C360.703 152.492 360.571 153.017 360.305 153.483C360.04 153.949 359.622 154.318 359.05 154.591C358.478 154.864 357.733 155 356.817 155H352.612ZM354.021 153.75H356.817C357.737 153.75 358.391 153.572 358.777 153.216C359.167 152.856 359.362 152.42 359.362 151.909C359.362 151.515 359.262 151.152 359.061 150.818C358.86 150.481 358.574 150.212 358.203 150.011C357.832 149.807 357.393 149.705 356.885 149.705H354.021V153.75ZM354.021 148.477H356.635C357.059 148.477 357.442 148.394 357.783 148.227C358.127 148.061 358.4 147.826 358.601 147.523C358.805 147.22 358.908 146.864 358.908 146.455C358.908 145.943 358.73 145.509 358.374 145.153C358.018 144.794 357.453 144.614 356.68 144.614H354.021V148.477ZM362.837 155V146.273H364.132V147.591H364.223C364.382 147.159 364.67 146.809 365.087 146.54C365.503 146.271 365.973 146.136 366.496 146.136C366.594 146.136 366.717 146.138 366.865 146.142C367.013 146.146 367.125 146.152 367.2 146.159V147.523C367.155 147.511 367.051 147.494 366.888 147.472C366.729 147.445 366.56 147.432 366.382 147.432C365.958 147.432 365.579 147.521 365.246 147.699C364.916 147.873 364.655 148.116 364.462 148.426C364.272 148.733 364.178 149.083 364.178 149.477V155H362.837ZM372.07 155.182C371.282 155.182 370.59 154.994 369.996 154.619C369.405 154.244 368.943 153.72 368.609 153.045C368.28 152.371 368.115 151.583 368.115 150.682C368.115 149.773 368.28 148.979 368.609 148.301C368.943 147.623 369.405 147.097 369.996 146.722C370.59 146.347 371.282 146.159 372.07 146.159C372.857 146.159 373.547 146.347 374.138 146.722C374.732 147.097 375.195 147.623 375.524 148.301C375.857 148.979 376.024 149.773 376.024 150.682C376.024 151.583 375.857 152.371 375.524 153.045C375.195 153.72 374.732 154.244 374.138 154.619C373.547 154.994 372.857 155.182 372.07 155.182ZM372.07 153.977C372.668 153.977 373.161 153.824 373.547 153.517C373.933 153.21 374.219 152.807 374.405 152.307C374.59 151.807 374.683 151.265 374.683 150.682C374.683 150.098 374.59 149.555 374.405 149.051C374.219 148.547 373.933 148.14 373.547 147.83C373.161 147.519 372.668 147.364 372.07 147.364C371.471 147.364 370.979 147.519 370.592 147.83C370.206 148.14 369.92 148.547 369.734 149.051C369.549 149.555 369.456 150.098 369.456 150.682C369.456 151.265 369.549 151.807 369.734 152.307C369.92 152.807 370.206 153.21 370.592 153.517C370.979 153.824 371.471 153.977 372.07 153.977ZM379.751 155L377.092 146.273H378.501L380.388 152.955H380.479L382.342 146.273H383.774L385.615 152.932H385.706L387.592 146.273H389.001L386.342 155H385.024L383.115 148.295H382.979L381.07 155H379.751ZM396.956 148.227L395.751 148.568C395.676 148.367 395.564 148.172 395.416 147.983C395.272 147.79 395.075 147.631 394.825 147.506C394.575 147.381 394.255 147.318 393.865 147.318C393.331 147.318 392.886 147.441 392.53 147.688C392.178 147.93 392.001 148.239 392.001 148.614C392.001 148.947 392.123 149.21 392.365 149.403C392.607 149.597 392.986 149.758 393.501 149.886L394.797 150.205C395.577 150.394 396.159 150.684 396.541 151.074C396.924 151.46 397.115 151.958 397.115 152.568C397.115 153.068 396.971 153.515 396.683 153.909C396.399 154.303 396.001 154.614 395.49 154.841C394.979 155.068 394.384 155.182 393.706 155.182C392.816 155.182 392.079 154.989 391.496 154.602C390.912 154.216 390.543 153.652 390.388 152.909L391.661 152.591C391.782 153.061 392.011 153.413 392.348 153.648C392.689 153.883 393.134 154 393.683 154C394.308 154 394.804 153.867 395.172 153.602C395.543 153.333 395.729 153.011 395.729 152.636C395.729 152.333 395.623 152.08 395.411 151.875C395.198 151.667 394.873 151.511 394.433 151.409L392.979 151.068C392.179 150.879 391.592 150.585 391.217 150.188C390.846 149.786 390.661 149.284 390.661 148.682C390.661 148.189 390.799 147.754 391.075 147.375C391.356 146.996 391.736 146.699 392.217 146.483C392.702 146.267 393.251 146.159 393.865 146.159C394.729 146.159 395.407 146.348 395.899 146.727C396.395 147.106 396.748 147.606 396.956 148.227ZM402.793 155.182C401.952 155.182 401.226 154.996 400.616 154.625C400.01 154.25 399.543 153.727 399.213 153.057C398.887 152.383 398.724 151.598 398.724 150.705C398.724 149.811 398.887 149.023 399.213 148.341C399.543 147.655 400.001 147.121 400.588 146.739C401.179 146.352 401.868 146.159 402.656 146.159C403.111 146.159 403.56 146.235 404.003 146.386C404.446 146.538 404.849 146.784 405.213 147.125C405.577 147.462 405.866 147.909 406.082 148.466C406.298 149.023 406.406 149.708 406.406 150.523V151.091H399.679V149.932H405.043C405.043 149.439 404.944 149 404.747 148.614C404.554 148.227 404.277 147.922 403.918 147.699C403.562 147.475 403.141 147.364 402.656 147.364C402.122 147.364 401.66 147.496 401.27 147.761C400.884 148.023 400.586 148.364 400.378 148.784C400.17 149.205 400.065 149.655 400.065 150.136V150.909C400.065 151.568 400.179 152.127 400.406 152.585C400.637 153.04 400.957 153.386 401.366 153.625C401.776 153.86 402.251 153.977 402.793 153.977C403.145 153.977 403.463 153.928 403.747 153.83C404.035 153.727 404.283 153.576 404.491 153.375C404.7 153.17 404.861 152.917 404.974 152.614L406.27 152.977C406.134 153.417 405.904 153.803 405.582 154.136C405.26 154.466 404.863 154.723 404.389 154.909C403.916 155.091 403.384 155.182 402.793 155.182ZM412.946 155V146.273H414.287V155H412.946ZM413.628 144.818C413.366 144.818 413.141 144.729 412.952 144.551C412.766 144.373 412.673 144.159 412.673 143.909C412.673 143.659 412.766 143.445 412.952 143.267C413.141 143.089 413.366 143 413.628 143C413.889 143 414.113 143.089 414.298 143.267C414.488 143.445 414.582 143.659 414.582 143.909C414.582 144.159 414.488 144.373 414.298 144.551C414.113 144.729 413.889 144.818 413.628 144.818ZM418.084 149.75V155H416.743V146.273H418.038V147.636H418.152C418.357 147.193 418.667 146.837 419.084 146.568C419.5 146.295 420.038 146.159 420.697 146.159C421.288 146.159 421.805 146.28 422.249 146.523C422.692 146.761 423.036 147.125 423.283 147.614C423.529 148.098 423.652 148.712 423.652 149.455V155H422.311V149.545C422.311 148.86 422.133 148.326 421.777 147.943C421.421 147.557 420.932 147.364 420.311 147.364C419.883 147.364 419.5 147.456 419.163 147.642C418.83 147.828 418.567 148.098 418.374 148.455C418.18 148.811 418.084 149.242 418.084 149.75ZM431.466 158.273C431.239 158.273 431.036 158.254 430.858 158.216C430.68 158.182 430.557 158.148 430.489 158.114L430.83 156.932C431.155 157.015 431.443 157.045 431.693 157.023C431.943 157 432.165 156.888 432.358 156.688C432.555 156.491 432.735 156.17 432.898 155.727L433.148 155.045L429.92 146.273H431.375L433.784 153.227H433.875L436.284 146.273H437.739L434.034 156.273C433.867 156.723 433.661 157.097 433.415 157.392C433.169 157.691 432.883 157.913 432.557 158.057C432.235 158.201 431.871 158.273 431.466 158.273ZM442.741 155.182C441.954 155.182 441.262 154.994 440.668 154.619C440.077 154.244 439.615 153.72 439.281 153.045C438.952 152.371 438.787 151.583 438.787 150.682C438.787 149.773 438.952 148.979 439.281 148.301C439.615 147.623 440.077 147.097 440.668 146.722C441.262 146.347 441.954 146.159 442.741 146.159C443.529 146.159 444.219 146.347 444.81 146.722C445.404 147.097 445.866 147.623 446.196 148.301C446.529 148.979 446.696 149.773 446.696 150.682C446.696 151.583 446.529 152.371 446.196 153.045C445.866 153.72 445.404 154.244 444.81 154.619C444.219 154.994 443.529 155.182 442.741 155.182ZM442.741 153.977C443.34 153.977 443.832 153.824 444.219 153.517C444.605 153.21 444.891 152.807 445.077 152.307C445.262 151.807 445.355 151.265 445.355 150.682C445.355 150.098 445.262 149.555 445.077 149.051C444.891 148.547 444.605 148.14 444.219 147.83C443.832 147.519 443.34 147.364 442.741 147.364C442.143 147.364 441.651 147.519 441.264 147.83C440.878 148.14 440.592 148.547 440.406 149.051C440.221 149.555 440.128 150.098 440.128 150.682C440.128 151.265 440.221 151.807 440.406 152.307C440.592 152.807 440.878 153.21 441.264 153.517C441.651 153.824 442.143 153.977 442.741 153.977ZM454.243 151.432V146.273H455.584V155H454.243V153.523H454.152C453.947 153.966 453.629 154.343 453.197 154.653C452.766 154.96 452.22 155.114 451.561 155.114C451.016 155.114 450.531 154.994 450.107 154.756C449.682 154.513 449.349 154.15 449.107 153.665C448.864 153.176 448.743 152.561 448.743 151.818V146.273H450.084V151.727C450.084 152.364 450.262 152.871 450.618 153.25C450.978 153.629 451.436 153.818 451.993 153.818C452.326 153.818 452.665 153.733 453.01 153.562C453.358 153.392 453.65 153.131 453.885 152.778C454.124 152.426 454.243 151.977 454.243 151.432ZM458.04 155V146.273H459.335V147.591H459.426C459.585 147.159 459.873 146.809 460.29 146.54C460.706 146.271 461.176 146.136 461.699 146.136C461.797 146.136 461.92 146.138 462.068 146.142C462.216 146.146 462.328 146.152 462.403 146.159V147.523C462.358 147.511 462.254 147.494 462.091 147.472C461.932 147.445 461.763 147.432 461.585 147.432C461.161 147.432 460.782 147.521 460.449 147.699C460.119 147.873 459.858 148.116 459.665 148.426C459.475 148.733 459.381 149.083 459.381 149.477V155H458.04ZM468.493 158.273V146.273H469.788V147.659H469.947C470.046 147.508 470.182 147.314 470.357 147.08C470.535 146.841 470.788 146.629 471.118 146.443C471.451 146.254 471.902 146.159 472.47 146.159C473.205 146.159 473.853 146.343 474.413 146.71C474.974 147.078 475.411 147.598 475.726 148.273C476.04 148.947 476.197 149.742 476.197 150.659C476.197 151.583 476.04 152.384 475.726 153.062C475.411 153.737 474.976 154.259 474.419 154.631C473.862 154.998 473.22 155.182 472.493 155.182C471.932 155.182 471.483 155.089 471.146 154.903C470.809 154.714 470.55 154.5 470.368 154.261C470.186 154.019 470.046 153.818 469.947 153.659H469.834V158.273H468.493ZM469.811 150.636C469.811 151.295 469.908 151.877 470.101 152.381C470.294 152.881 470.576 153.273 470.947 153.557C471.319 153.837 471.773 153.977 472.311 153.977C472.872 153.977 473.339 153.83 473.714 153.534C474.093 153.235 474.377 152.833 474.567 152.33C474.76 151.822 474.857 151.258 474.857 150.636C474.857 150.023 474.762 149.47 474.572 148.977C474.387 148.481 474.105 148.089 473.726 147.801C473.351 147.509 472.879 147.364 472.311 147.364C471.766 147.364 471.307 147.502 470.936 147.778C470.565 148.051 470.285 148.434 470.095 148.926C469.906 149.415 469.811 149.985 469.811 150.636ZM481.788 155.182C480.97 155.182 480.266 154.989 479.675 154.602C479.084 154.216 478.629 153.684 478.311 153.006C477.993 152.328 477.834 151.553 477.834 150.682C477.834 149.795 477.997 149.013 478.322 148.335C478.652 147.653 479.11 147.121 479.697 146.739C480.288 146.352 480.978 146.159 481.766 146.159C482.379 146.159 482.932 146.273 483.425 146.5C483.917 146.727 484.321 147.045 484.635 147.455C484.949 147.864 485.144 148.341 485.22 148.886H483.879C483.777 148.489 483.55 148.136 483.197 147.83C482.849 147.519 482.379 147.364 481.788 147.364C481.266 147.364 480.807 147.5 480.413 147.773C480.023 148.042 479.718 148.422 479.499 148.915C479.283 149.403 479.175 149.977 479.175 150.636C479.175 151.311 479.281 151.898 479.493 152.398C479.709 152.898 480.012 153.286 480.402 153.562C480.796 153.839 481.258 153.977 481.788 153.977C482.137 153.977 482.453 153.917 482.737 153.795C483.021 153.674 483.262 153.5 483.459 153.273C483.656 153.045 483.796 152.773 483.879 152.455H485.22C485.144 152.97 484.957 153.434 484.658 153.847C484.362 154.256 483.97 154.581 483.482 154.824C482.997 155.062 482.432 155.182 481.788 155.182Z"
						fill="#6C757D"
					/>
					<path
						d="M351.203 158.182H485.947V159.273H351.203V158.182Z"
						fill="#6C757D"
					/>
				</svg>